<svg width="256" height="554" viewBox="0 0 256 554" fill="none" xmlns="http://www.w3.org/2000/svg">
  <!-- iPhone Screen Background -->
  <rect width="256" height="554" rx="40" fill="url(#gradient1)"/>
  
  <!-- Status Bar -->
  <rect x="20" y="20" width="60" height="12" rx="6" fill="white" opacity="0.9"/>
  <rect x="196" y="20" width="40" height="12" rx="6" fill="white" opacity="0.9"/>
  
  <!-- App Header -->
  <rect x="20" y="60" width="120" height="24" rx="12" fill="white" opacity="0.3"/>
  <circle cx="220" cy="72" r="16" fill="white" opacity="0.3"/>
  
  <!-- Main Card -->
  <rect x="20" y="120" width="216" height="280" rx="20" fill="white" opacity="0.15"/>
  
  <!-- Card Content -->
  <rect x="40" y="150" width="176" height="20" rx="10" fill="white" opacity="0.4"/>
  <rect x="40" y="185" width="140" height="16" rx="8" fill="white" opacity="0.3"/>
  <rect x="40" y="210" width="160" height="16" rx="8" fill="white" opacity="0.3"/>
  <rect x="40" y="235" width="120" height="16" rx="8" fill="white" opacity="0.3"/>
  
  <!-- Divider -->
  <line x1="40" y1="280" x2="216" y2="280" stroke="white" stroke-opacity="0.3" stroke-width="2"/>
  
  <!-- Bottom Section -->
  <rect x="40" y="310" width="176" height="16" rx="8" fill="white" opacity="0.3"/>
  <rect x="40" y="335" width="140" height="16" rx="8" fill="white" opacity="0.3"/>
  <rect x="40" y="360" width="100" height="16" rx="8" fill="white" opacity="0.3"/>
  
  <!-- Action Buttons -->
  <rect x="40" y="440" width="80" height="40" rx="20" fill="white" opacity="0.4"/>
  <rect x="136" y="440" width="80" height="40" rx="20" fill="white" opacity="0.2"/>
  
  <!-- Bottom Navigation -->
  <circle cx="64" cy="514" r="12" fill="white" opacity="0.5"/>
  <circle cx="128" cy="514" r="12" fill="white" opacity="0.3"/>
  <circle cx="192" cy="514" r="12" fill="white" opacity="0.3"/>
  
  <!-- Gradient Definition -->
  <defs>
    <linearGradient id="gradient1" x1="0" y1="0" x2="256" y2="554" gradientUnits="userSpaceOnUse">
      <stop offset="0%" stop-color="#667eea"/>
      <stop offset="100%" stop-color="#764ba2"/>
    </linearGradient>
  </defs>
</svg>
